<svg xmlns="http://www.w3.org/2000/svg" xmlns:xlink="http://www.w3.org/1999/xlink" version="1.1" x="0px" y="0px" viewBox="0 0 512 640" enable-background="new 0 0 512 512" xml:space="preserve"><g><path d="M439.1,160.1c0-50.5-41.1-91.6-91.6-91.6c-39,0-73.5,24.8-86.3,61.2c-3.5-0.2-7.1-0.2-10.5,0   c-12.8-36.4-47.3-61.2-86.3-61.2c-50.5,0-91.6,41.1-91.6,91.6c0,20.4,6.8,40.1,19.3,56.2c-12.7,21.7-19.3,45.9-19.3,70.3   c0,86.6,82.2,157,183.1,157s183.1-70.4,183.1-157c0-24.4-6.7-48.6-19.3-70.3C432.3,200.2,439.1,180.5,439.1,160.1z M421.7,286.5   c0,76.9-74.3,139.5-165.7,139.5S90.3,363.5,90.3,286.5c0-23.1,6.9-46.1,20-66.4l3.6-5.6l-4.5-5c-12.3-13.7-19.1-31.3-19.1-49.5   c0-40.9,33.3-74.1,74.1-74.1c33.5,0,62.9,22.6,71.5,55.1l1.8,6.9l9.1-0.5c6-0.4,12.1-0.4,18.1,0l9.1,0.5l1.8-6.9   c8.6-32.4,38-55.1,71.5-55.1c40.9,0,74.1,33.3,74.1,74.1c0,18.3-6.8,35.9-19.1,49.5l-4.5,5l3.6,5.6   C414.8,240.4,421.7,263.4,421.7,286.5z"/><circle cx="347.6" cy="160.1" r="39.2"/><circle cx="164.4" cy="160.1" r="39.2"/><circle cx="225.5" cy="247.3" r="13.1"/><circle cx="286.5" cy="247.3" r="13.1"/><path d="M138.7,322.9l9.6,14.5c23-15.2,64.2-24.7,107.6-24.7c43.4,0,84.7,9.5,107.7,24.7l9.6-14.5c-26.1-17.3-69.9-27.6-117.3-27.6   C208.6,295.2,164.8,305.6,138.7,322.9z"/></g><text x="0" y="527" fill="#000000" font-size="5px" font-weight="bold" font-family="'Helvetica Neue', Helvetica, Arial-Unicode, Arial, Sans-serif">Created by Creative Stall</text><text x="0" y="532" fill="#000000" font-size="5px" font-weight="bold" font-family="'Helvetica Neue', Helvetica, Arial-Unicode, Arial, Sans-serif">from the Noun Project</text></svg>