<?xml version="1.0" encoding="utf-8"?>
<!-- Generator: Adobe Illustrator 15.0.0, SVG Export Plug-In . SVG Version: 6.00 Build 0)  -->
<!DOCTYPE svg PUBLIC "-//W3C//DTD SVG 1.1//EN" "http://www.w3.org/Graphics/SVG/1.1/DTD/svg11.dtd">
<svg version="1.1" id="Layer_1" xmlns="http://www.w3.org/2000/svg" xmlns:xlink="http://www.w3.org/1999/xlink" x="0px" y="0px"
	 width="512px" height="512px" viewBox="0 0 512 512" enable-background="new 0 0 512 512" xml:space="preserve">
<g id="Grid_1_">
	<g id="Layer_1_1_">
		<g id="Grid">
			<g>
			</g>
		</g>
	</g>
</g>
<g>
	<polygon points="352,64 384,32 352,0 160,0 128,32 160,64 	"/>
	<polygon points="384,48 352,80 352,208 384,240 416,208 416,80 	"/>
	<polygon points="160,208.001 160,80 128,48 96,80 96,208.001 128,240.001 	"/>
	<polygon points="352,304 352,432 384,464 416,432 416,304 384,272 	"/>
	<polygon points="160,432 160,304 128,272 96,304 96,432 128,464 	"/>
	<polygon points="160,448 128,480 160,512 352,512 384,480 352,448 	"/>
</g>
</svg>
